<?xml version="1.0" standalone="no"?>
<!DOCTYPE svg PUBLIC "-//W3C//DTD SVG 20010904//EN"
 "http://www.w3.org/TR/2001/REC-SVG-20010904/DTD/svg10.dtd">
<svg version="1.0" xmlns="http://www.w3.org/2000/svg"
 width="32.000000pt" height="32.000000pt" viewBox="0 0 32.000000 32.000000"
 preserveAspectRatio="xMidYMid meet">

<g transform="translate(0.000000,32.000000) scale(0.100000,-0.100000)"
fill="#000000" stroke="none">
<path d="M35 239 c-15 -23 16 -30 131 -27 98 2 119 6 119 18 0 12 -21 15 -122
18 -81 2 -124 -1 -128 -9z"/>
<path d="M35 169 c-15 -23 16 -30 131 -27 98 2 119 6 119 18 0 12 -21 15 -122
18 -81 2 -124 -1 -128 -9z"/>
<path d="M35 100 c-13 -20 8 -30 63 -30 61 0 89 11 78 29 -9 14 -133 15 -141
1z"/>
</g>
</svg>
