<?xml version="1.0" standalone="no"?>
<!DOCTYPE svg PUBLIC "-//W3C//DTD SVG 20010904//EN"
 "http://www.w3.org/TR/2001/REC-SVG-20010904/DTD/svg10.dtd">
<svg version="1.0" xmlns="http://www.w3.org/2000/svg"
 width="942.000000pt" height="748.000000pt" viewBox="0 0 942.000000 748.000000"
 preserveAspectRatio="xMidYMid meet">

<g transform="translate(0.000000,748.000000) scale(0.100000,-0.100000)"
fill="#000000" stroke="none">
<path d="M6404 6526 c-63 -28 -63 -29 -57 -332 3 -151 3 -274 -1 -274 -5 0
-56 29 -115 64 -373 224 -760 354 -1191 401 -284 31 -694 9 -959 -51 -278 -64
-568 -179 -817 -325 -292 -171 -593 -432 -775 -674 -64 -84 -64 -84 -144 -110
-44 -14 -108 -42 -143 -61 -70 -40 -164 -129 -192 -183 l-18 -36 -29 65 c-38
84 -120 172 -225 243 -93 63 -95 63 -134 -15 -52 -103 -66 -219 -40 -332 l14
-58 -32 7 c-92 21 -119 23 -211 15 -97 -8 -160 -3 -218 19 -37 14 -44 -4 -29
-87 27 -161 163 -313 320 -358 82 -24 228 -21 288 5 26 12 49 19 51 17 2 -2
-14 -39 -35 -82 -52 -104 -189 -244 -238 -244 -34 0 -48 -12 -58 -50 -8 -26
-23 -41 -291 -289 l-167 -155 7 -60 c11 -95 43 -248 55 -260 7 -7 135 -13 383
-16 l372 -5 18 -125 c10 -69 29 -170 42 -224 18 -74 22 -103 14 -113 -6 -7
-15 -13 -20 -13 -32 0 -498 -222 -624 -298 -239 -143 -310 -249 -252 -374 13
-29 88 -138 165 -242 77 -105 164 -233 193 -285 30 -53 83 -127 121 -167 48
-52 70 -85 78 -116 40 -158 98 -208 241 -208 31 0 77 6 103 14 l47 14 15 -38
c20 -50 55 -65 137 -57 101 10 246 69 370 151 126 84 130 142 21 322 -24 40
-44 77 -44 81 0 10 95 43 122 43 8 0 37 -28 64 -62 73 -95 287 -305 399 -394
530 -418 1231 -638 1902 -596 347 21 655 93 958 222 417 178 717 398 1050 772
l60 67 63 -25 c34 -15 62 -30 62 -36 0 -5 -22 -46 -49 -91 -89 -148 -89 -202
-3 -278 104 -91 314 -179 430 -179 54 0 67 4 87 25 14 13 25 33 25 43 0 29 7
31 57 16 54 -16 153 -18 205 -4 60 17 103 65 127 143 27 88 33 99 100 171 68
74 105 127 157 226 21 41 66 111 99 155 34 44 96 133 140 198 68 103 79 124
83 171 6 70 -16 115 -88 186 -88 86 -415 264 -735 400 -55 23 -102 44 -103 45
-2 2 8 53 22 113 19 84 56 310 56 347 0 3 159 6 352 7 l353 3 22 135 c12 74
22 151 22 170 1 34 -17 52 -384 400 l-385 364 0 46 c0 73 4 75 133 75 111 0
115 1 190 38 141 70 248 202 278 345 11 53 8 176 -5 189 -3 3 -28 -4 -55 -15
-27 -12 -91 -28 -142 -37 -158 -25 -194 -35 -231 -60 -56 -38 -62 -36 -59 17
4 74 -19 164 -64 253 -34 65 -44 97 -49 156 -12 128 -29 170 -101 248 -35 39
-68 83 -72 98 -8 30 -10 435 -2 564 7 122 -19 149 -142 149 -64 0 -73 -3 -98
-28 l-28 -28 5 -304 c3 -210 1 -317 -7 -345 -7 -24 -36 -69 -75 -114 -78 -88
-96 -135 -96 -248 0 -46 -3 -83 -8 -83 -4 0 -62 55 -129 123 -81 81 -129 138
-144 170 -12 27 -51 80 -86 119 l-64 69 2 345 c2 331 1 346 -18 372 -11 14
-31 30 -44 33 -41 12 -123 9 -155 -5z m154 -46 c17 -11 32 -22 32 -24 0 -20
-19 -41 -52 -56 -33 -15 -36 -19 -23 -30 28 -23 16 -30 -54 -30 -65 0 -69 1
-75 25 -4 14 -4 36 0 50 5 21 9 23 25 14 26 -14 131 -7 137 9 3 9 -13 12 -56
12 -64 0 -92 6 -92 21 0 31 111 37 158 9z m-1416 -143 c330 -51 657 -162 940
-318 119 -66 268 -160 268 -169 0 -8 -21 -73 -26 -78 -1 -2 -46 26 -101 63
-207 140 -532 282 -802 351 -257 66 -585 102 -806 89 -784 -46 -1456 -368
-1961 -939 -65 -73 -73 -78 -117 -83 -34 -4 -47 -2 -47 7 0 18 93 131 197 240
135 142 305 283 479 398 360 236 788 394 1194 441 52 6 109 13 125 15 71 10
565 -3 657 -17z m1339 -47 c31 0 47 -118 18 -136 -5 -3 -9 -23 -9 -44 0 -30 4
-40 21 -45 15 -5 17 -10 10 -19 -13 -16 -4 -26 23 -26 13 0 17 -3 10 -10 -16
-16 -96 -23 -126 -11 l-28 11 0 146 0 147 31 -7 c17 -3 40 -6 50 -6z m-1554
-50 c304 -43 341 -49 443 -74 30 -8 84 -22 120 -33 l65 -18 3 -584 c1 -376 -1
-588 -8 -596 -7 -9 -30 -9 -102 1 -114 15 -278 33 -418 44 -58 5 -141 15 -185
22 -48 8 -166 13 -295 13 -227 -1 -299 -10 -557 -71 -57 -13 -105 -24 -108
-24 -3 0 -4 267 -3 593 l3 592 135 27 c74 15 200 43 280 63 80 19 165 39 190
44 61 12 354 13 437 1z m2362 -137 c-1 -89 -3 -100 -10 -63 -7 41 -2 170 7
170 2 0 3 -48 3 -107z m-702 -358 c6 -11 34 -40 62 -63 64 -54 89 -102 101
-195 12 -91 12 -1439 1 -1531 -15 -114 -64 -145 -235 -151 -50 -1 -67 0 -38 2
28 2 52 8 52 12 0 9 -49 21 -88 21 -14 0 -22 3 -19 6 4 4 47 1 97 -6 86 -11
120 -8 92 9 -7 4 0 11 23 19 42 16 81 61 94 110 6 20 12 93 13 162 5 232 -13
1345 -24 1400 -9 50 -16 61 -78 120 -38 36 -74 78 -79 93 -12 32 -14 170 -3
207 4 16 9 -14 12 -85 3 -60 11 -119 17 -130z m-175 138 c7 -134 0 -156 -70
-222 -34 -31 -68 -73 -77 -94 -27 -65 -36 -344 -33 -997 3 -655 3 -653 52
-679 11 -7 41 -18 66 -26 l45 -15 -42 3 c-34 2 -40 0 -30 -10 6 -6 28 -16 47
-22 34 -11 34 -11 -10 -5 -65 8 -101 32 -130 89 l-25 50 0 790 0 790 24 45
c13 24 50 72 83 106 52 55 60 67 68 120 6 33 10 83 10 112 0 86 17 59 22 -35z
m887 -15 c0 -35 -3 -93 -7 -130 -8 -64 -10 -70 -65 -127 -32 -33 -70 -86 -85
-118 l-27 -58 0 -750 c0 -687 1 -753 17 -788 20 -43 57 -63 146 -77 l57 -9
-60 4 c-33 2 -81 13 -106 24 -84 38 -80 -5 -79 855 0 864 -6 807 93 913 70 75
87 121 87 240 0 67 3 83 15 83 12 0 15 -13 14 -62z m156 -157 c5 -24 25 -52
70 -97 99 -97 93 -42 97 -930 l3 -761 -27 -40 c-27 -41 -83 -71 -111 -60 -6 3
-2 6 10 6 12 1 37 16 56 34 59 55 59 63 55 885 -4 837 3 776 -90 853 -72 61
-81 84 -84 219 l-3 115 9 -95 c5 -52 12 -110 15 -129z m-526 -365 l114 -115 5
-55 c8 -100 2 -98 -128 46 l-120 133 0 52 c0 29 3 53 8 53 4 0 59 -51 121
-114z m-5200 -143 c1 -6 11 -19 23 -27 12 -9 17 -16 11 -16 -7 0 -15 -17 -19
-37 l-8 -38 -22 70 c-15 47 -27 71 -39 74 -16 3 -17 -2 -11 -37 5 -37 4 -40
-14 -35 -19 5 -20 0 -20 -125 0 -94 4 -140 16 -167 8 -20 13 -42 11 -48 -5
-16 -41 52 -56 106 -17 59 -10 194 12 228 8 13 20 42 27 64 7 22 15 44 17 48
6 10 71 -44 72 -60z m4816 15 c114 -1 133 -3 80 -8 -62 -5 -66 -6 -35 -13 19
-4 51 -8 70 -9 27 -2 36 -8 38 -25 3 -18 -3 -23 -30 -28 -18 -3 -64 -12 -103
-20 l-70 -14 100 2 100 2 0 -30 c0 -28 -3 -30 -50 -36 -27 -4 -85 -10 -127
-14 -43 -4 -78 -11 -78 -17 0 -7 42 -8 130 -3 l130 7 0 -60 c0 -69 -3 -72 -88
-72 -130 0 -138 -28 -9 -32 74 -2 92 -6 92 -18 0 -12 -16 -16 -70 -18 -38 -1
-81 -5 -95 -8 -23 -6 -24 -7 -5 -14 11 -5 55 -9 98 -9 59 -1 77 -4 77 -15 0
-17 -26 -23 -147 -32 -51 -3 -93 -10 -93 -15 0 -5 54 -9 120 -9 92 0 120 -3
120 -13 0 -23 -23 -37 -61 -37 -57 0 -129 -12 -129 -21 0 -5 43 -9 95 -9 86 0
95 -2 95 -19 0 -20 -39 -31 -120 -31 -56 0 -95 -19 -95 -45 0 -18 9 -20 105
-25 100 -5 105 -6 108 -27 3 -23 3 -23 -147 -23 -83 0 -151 -4 -151 -9 0 -14
57 -21 181 -21 110 0 119 -1 119 -19 0 -40 -21 -44 -198 -39 -92 3 -179 10
-194 16 l-28 12 0 408 c0 225 3 412 8 416 4 5 30 5 57 2 28 -3 118 -7 200 -8z
m1162 -55 c32 -69 41 -182 20 -257 -22 -84 -37 -69 -30 31 4 66 2 103 -11 145
-15 54 -22 138 -10 138 3 0 17 -26 31 -57z m-5033 31 c27 -9 69 -28 95 -42 48
-27 168 -139 158 -148 -8 -9 -49 15 -87 51 -19 18 -63 47 -96 64 -55 28 -71
31 -153 31 -50 0 -91 4 -91 9 0 19 56 50 91 51 19 0 57 -7 83 -16z m4846 -31
c-78 -6 -84 -20 -11 -29 55 -6 61 -9 61 -29 0 -26 -10 -29 -115 -41 -104 -11
-95 -23 13 -17 l102 6 0 -31 c0 -35 -5 -36 -164 -48 -67 -5 -84 -9 -71 -17 10
-5 48 -7 84 -4 110 8 188 -12 101 -26 -17 -3 -14 -5 13 -6 48 -1 53 -30 5 -33
l-33 -1 33 -4 c29 -4 33 -8 30 -31 -3 -27 -4 -27 -85 -30 -110 -4 -107 -22 3
-22 76 0 85 -2 82 -17 -2 -10 -12 -19 -23 -20 -102 -10 -135 -16 -135 -24 0
-5 36 -9 81 -9 71 0 80 -2 77 -17 -3 -15 -16 -18 -88 -21 -105 -3 -140 -9
-119 -23 7 -5 57 -9 109 -7 85 2 95 0 98 -16 6 -27 -15 -36 -88 -36 -72 0
-108 -13 -68 -23 12 -4 56 -7 96 -7 39 0 72 -4 72 -8 0 -19 -27 -32 -70 -33
-86 -2 -101 -17 -17 -18 57 -1 77 -4 77 -14 0 -15 -131 -39 -171 -31 -21 4
-22 3 -4 -5 11 -5 55 -10 98 -10 75 -1 77 -2 77 -26 l0 -25 -107 -1 c-153 -2
-193 -13 -82 -23 47 -5 107 -6 135 -5 47 4 49 3 49 -21 0 -23 -4 -26 -65 -33
-81 -9 -321 9 -332 26 -9 15 -11 801 -1 810 3 4 97 6 207 5 111 -1 176 -3 146
-5z m-605 -185 c80 -17 125 -44 125 -74 0 -26 0 -26 -45 15 -43 39 -65 51 -65
33 0 -5 14 -21 30 -37 32 -30 38 -45 19 -45 -14 0 -169 110 -169 120 0 8 27 5
105 -12z m-1835 -33 c373 -40 460 -54 585 -90 141 -41 227 -79 316 -140 45
-31 104 -67 130 -81 48 -24 49 -26 49 -69 0 -50 -9 -55 -47 -25 -14 11 -40 20
-57 20 -41 0 -85 28 -130 83 -79 97 -154 125 -481 181 -133 23 -249 36 -345
40 -80 3 -185 12 -235 21 -113 19 -217 19 -366 0 -64 -8 -206 -19 -315 -25
-200 -11 -265 -21 -564 -85 -85 -19 -182 -39 -214 -45 -54 -11 -65 -18 -131
-84 -64 -64 -202 -162 -212 -152 -3 2 1 14 7 26 10 18 9 21 -2 18 -22 -7 -38
-51 -32 -88 4 -22 0 -46 -10 -65 -18 -33 -22 -90 -6 -80 5 3 20 -18 33 -47 29
-65 108 -140 182 -174 36 -17 93 -30 177 -40 68 -8 186 -33 264 -55 l141 -39
266 0 c194 0 296 -4 374 -16 84 -13 136 -15 233 -8 69 4 217 8 330 9 170 1
213 4 250 18 123 49 166 60 305 78 241 32 306 53 410 132 55 41 71 61 126 155
10 17 25 32 33 32 11 0 13 -18 10 -96 -4 -108 -3 -106 -94 -151 -45 -22 -51
-28 -32 -31 13 -2 47 10 77 27 l55 31 0 -24 c0 -19 -16 -34 -78 -74 -170 -109
-276 -151 -504 -202 -298 -65 -560 -95 -934 -106 -239 -7 -293 -4 -679 32
-239 23 -531 87 -701 154 -129 51 -286 145 -338 200 -65 70 -80 109 -71 190
15 146 18 152 148 248 251 188 371 244 623 291 60 11 204 39 319 61 504 96
455 89 640 85 100 -2 304 -19 495 -40z m1795 -80 c28 -9 74 -25 103 -37 42
-18 52 -26 52 -46 0 -23 -1 -23 -22 -10 -75 49 -67 45 -155 68 -26 6 -43 17
-43 25 0 18 3 18 65 0z m-5626 -34 c65 -7 88 -13 98 -27 13 -18 11 -19 -29
-22 -24 -2 -78 5 -120 15 -63 14 -78 22 -78 37 0 14 5 17 23 12 12 -4 60 -11
106 -15z m1061 0 c0 -19 -37 -54 -49 -47 -9 6 -7 14 10 32 23 25 39 31 39 15z
m5900 -4 c0 -17 -62 -108 -102 -147 -44 -45 -123 -94 -181 -114 -51 -17 -177
-22 -177 -7 0 18 78 71 106 71 56 0 156 23 172 39 9 10 34 30 55 45 20 16 53
50 73 77 35 48 54 61 54 36z m-3426 -68 c22 -6 69 -31 105 -55 43 -29 76 -44
96 -44 30 1 29 1 -12 22 -24 11 -43 24 -43 28 0 11 144 25 270 25 109 0 118
-2 184 -33 40 -19 77 -30 88 -26 10 3 32 -3 51 -14 17 -11 66 -25 107 -31 101
-14 140 -26 179 -55 45 -33 61 -58 77 -119 23 -87 19 -122 -20 -160 -19 -19
-47 -37 -62 -41 -16 -4 -49 -20 -74 -36 -65 -42 -96 -51 -187 -60 -69 -7 -99
-17 -202 -65 l-122 -57 -129 7 c-113 6 -141 4 -231 -15 -130 -29 -225 -24
-319 14 -80 33 -138 35 -250 8 -60 -14 -137 -22 -263 -27 l-178 -6 -36 40
c-24 28 -47 43 -72 47 -59 11 -72 23 -23 24 29 0 41 4 36 11 -6 11 -18 10
-126 -7 -24 -4 -48 -1 -69 10 -36 18 -63 21 -54 6 7 -11 -95 -12 -134 -1 -35
9 -41 34 -7 25 20 -5 26 -2 26 10 0 23 -75 69 -178 107 -39 14 -53 43 -40 79
13 40 47 74 123 123 39 25 87 65 107 90 32 39 45 46 105 61 37 9 113 31 168
48 88 27 108 29 176 24 63 -6 87 -4 137 13 34 12 71 21 82 21 35 0 22 -19 -22
-30 -77 -20 -128 -50 -125 -74 2 -17 -3 -21 -25 -18 -25 2 -28 -1 -28 -26 0
-35 27 -61 74 -72 42 -9 44 -5 14 27 -35 37 -13 49 64 35 40 -7 109 -8 191 -3
112 6 130 10 149 29 18 18 20 26 12 49 -7 21 -22 32 -63 47 -73 27 -46 42 47
26 60 -10 73 -9 122 9 63 23 236 29 304 10z m-2481 -30 c81 -41 207 -139 207
-160 0 -23 -41 -5 -95 42 -33 28 -84 65 -112 82 -29 17 -53 37 -53 44 0 17 4
17 53 -8z m-343 -27 c0 -22 -26 -59 -35 -50 -6 6 21 68 30 68 3 0 5 -8 5 -18z
m2388 -46 c5 -23 -26 -56 -50 -56 -21 0 -21 0 7 47 21 35 38 38 43 9z m-2508
-16 c13 -8 13 -12 0 -36 -19 -35 -40 -42 -40 -14 0 12 -5 30 -10 41 -9 16 -7
19 12 19 13 0 30 -5 38 -10z m91 -49 l23 -18 -40 -69 c-33 -58 -44 -70 -69
-72 -17 -2 -40 -13 -52 -25 -14 -13 -23 -16 -23 -8 0 23 112 211 125 211 7 0
23 -8 36 -19z m4764 -40 c9 -15 -5 -19 -92 -22 -106 -5 -116 14 -13 22 41 3
80 6 87 7 6 1 14 -2 18 -7z m-4667 -21 l32 -20 -26 -40 c-23 -35 -32 -40 -64
-40 -20 0 -39 3 -42 6 -6 6 52 114 62 114 3 0 20 -9 38 -20z m787 -252 c0 -69
4 -90 24 -125 14 -24 21 -46 18 -50 -4 -3 -91 -1 -194 6 -109 7 -190 8 -195 3
-12 -12 135 -29 306 -38 135 -6 156 -10 156 -26 0 -7 -53 -8 -152 -5 l-153 6
105 -14 c58 -7 141 -16 185 -20 64 -4 84 -10 105 -29 14 -12 61 -38 105 -57
44 -18 96 -44 115 -56 20 -12 51 -26 70 -29 19 -4 44 -13 55 -21 11 -7 29 -13
42 -13 12 0 57 -11 100 -24 43 -14 109 -28 147 -31 50 -5 65 -10 57 -18 -6 -6
-11 -14 -11 -17 0 -4 62 -10 138 -13 75 -4 178 -14 227 -23 101 -19 168 -22
237 -10 26 5 59 5 75 1 26 -7 24 -8 -27 -21 -75 -19 -182 -12 -610 43 -195 25
-366 46 -380 48 -14 2 -164 22 -335 45 l-310 42 -205 -8 c-427 -18 -599 -9
-745 38 -112 37 -271 127 -242 137 21 8 10 24 -30 45 -18 9 -33 21 -33 26 0
16 17 11 47 -14 37 -30 98 -57 203 -87 77 -22 82 -24 51 -29 -50 -7 -50 -27 1
-35 24 -4 84 -21 133 -38 87 -30 96 -31 240 -29 158 2 225 8 225 22 0 4 -21
11 -47 14 -105 14 -399 68 -413 75 -8 4 -86 27 -172 52 -87 24 -158 47 -158
52 0 4 49 7 110 7 160 0 257 23 700 169 217 71 404 130 415 130 18 1 20 -5 20
-81z m-278 46 c-3 -3 -12 -4 -19 -1 -8 3 -5 6 6 6 11 1 17 -2 13 -5z m-184
-11 c-62 -2 -165 -2 -230 0 -65 1 -14 3 112 3 127 0 180 -2 118 -3z m-534 -7
c-10 -9 -79 -14 -74 -5 4 5 22 9 42 9 20 0 34 -2 32 -4z m5085 -11 c4 -11 22
-15 63 -16 52 -1 55 -2 23 -9 -19 -4 -68 -10 -107 -14 l-73 -6 0 30 c0 29 2
30 44 30 30 0 46 -5 50 -15z m-4849 -95 l120 -1 -105 -34 -105 -34 -205 0
-205 0 39 34 c44 39 83 45 246 39 52 -2 149 -4 215 -4z m4975 -9 c0 -9 -210
-22 -224 -14 -4 3 -2 9 5 14 18 11 219 12 219 0z m-858 -244 l3 -69 -60 -24
c-84 -35 -141 -65 -274 -148 -150 -94 -315 -187 -369 -209 -23 -9 -66 -17 -95
-17 -49 0 -984 133 -1037 148 -14 4 80 9 209 12 166 4 235 8 238 17 2 6 -4 13
-14 15 -34 8 119 20 175 14 37 -4 76 -1 112 9 30 8 82 15 114 15 60 0 127 10
241 35 33 8 98 19 145 25 118 16 278 57 320 83 33 21 56 34 125 71 17 9 57 36
90 60 33 24 63 40 67 37 3 -3 8 -37 10 -74z m811 -34 c-35 -2 -91 -2 -125 0
-35 2 -7 3 62 3 69 0 97 -1 63 -3z m117 -93 c13 -8 13 -9 0 -14 -31 -10 -250
-17 -309 -10 -106 12 -53 23 119 27 91 1 167 3 170 5 3 1 12 -2 20 -8z m1090
-20 c14 -5 -82 -8 -220 -9 -135 -1 -283 -4 -330 -7 -49 -4 -82 -3 -77 2 16 17
580 29 627 14z m-5570 -46 c212 -5 219 -6 107 -13 -133 -9 -107 -26 45 -29 91
-2 135 -6 139 -15 5 -9 53 -12 181 -10 95 0 179 -2 186 -6 15 -8 -1154 -21
-1823 -21 l-410 1 54 49 54 50 296 2 c324 3 896 -1 1171 -8z m4565 4 c-68 -20
-575 -28 -575 -8 0 13 45 15 340 16 174 1 255 -1 235 -8z m1099 -16 c5 -9
-338 -22 -550 -22 -58 0 -106 -4 -109 -10 -6 -10 128 -13 495 -10 162 1 198
-1 215 -14 18 -14 -102 -15 -1204 -16 -673 0 -1222 2 -1220 5 3 2 140 6 304 9
181 2 311 9 328 15 18 7 120 11 270 11 133 0 287 5 342 10 183 20 1119 37
1129 22z m-2109 -22 c-11 -4 -58 -4 -105 -1 l-85 6 75 5 c90 6 145 1 115 -10z
m-2630 -40 c13 -5 -26 -9 -105 -9 -84 -1 -120 2 -110 9 18 12 187 12 215 0z
m3350 -71 l270 -2 -185 -9 c-177 -8 -373 -5 -507 8 -52 5 -64 4 -69 -10 -4
-11 -11 -13 -23 -7 -9 6 -36 7 -58 4 -23 -3 -81 -2 -130 3 l-88 9 150 6 c83 3
200 5 260 3 61 -2 232 -5 380 -5z m-4270 -9 c-83 -16 -950 -23 -1252 -10 -220
10 -296 10 -307 1 -10 -9 -16 -8 -26 4 -11 13 77 15 806 14 451 -1 801 -5 779
-9z m1000 0 c4 -7 -82 -11 -262 -11 -403 -2 -473 -1 -538 9 -43 7 64 10 367
11 281 1 429 -2 433 -9z m2308 3 c-7 -2 -19 -2 -25 0 -7 3 -2 5 12 5 14 0 19
-2 13 -5z m2439 -5 c-16 -16 -236 -24 -265 -10 -12 6 -38 13 -57 15 -19 2 48
5 150 5 142 2 181 -1 172 -10z m-4025 -25 c35 -3 60 -9 58 -14 -3 -4 11 -13
32 -18 50 -13 234 -47 298 -55 45 -6 48 -5 31 8 -10 8 -74 25 -143 38 -69 12
-121 24 -116 25 7 3 811 -107 883 -120 8 -1 -6 -11 -32 -22 -27 -11 -46 -24
-44 -30 5 -15 33 -7 108 28 36 18 64 28 61 24 -7 -11 -124 -67 -139 -67 -6 0
-17 -7 -24 -15 -21 -25 32 -30 83 -7 41 18 127 94 127 112 0 8 88 68 140 95
26 13 -3 -22 -108 -133 -96 -101 -153 -153 -171 -157 -28 -6 -214 18 -286 37
-22 5 -123 43 -225 83 -102 40 -255 92 -340 115 -176 48 -330 93 -285 84 17
-3 58 -8 92 -11z m-1660 -9 c-3 -3 -12 -4 -19 -1 -8 3 -5 6 6 6 11 1 17 -2 13
-5z m1781 -1 c-10 -2 -26 -2 -35 0 -10 3 -2 5 17 5 19 0 27 -2 18 -5z m-3143
-17 c17 -1 -27 -4 -97 -4 -70 -1 -129 1 -131 6 -5 6 158 6 228 -2z m4613 7
c-10 -2 -28 -2 -40 0 -13 2 -5 4 17 4 22 1 32 -1 23 -4z m-2833 -22 l90 -8
-70 0 c-38 -1 -108 2 -155 6 -83 8 -84 8 -20 8 36 1 106 -2 155 -6z m173 -18
c-10 -2 -28 -2 -40 0 -13 2 -5 4 17 4 22 1 32 -1 23 -4z m-1357 -318 c16 -108
38 -224 55 -281 5 -18 0 -24 -31 -34 -20 -7 -41 -8 -45 -4 -23 25 -90 410 -75
434 4 6 23 10 43 8 l36 -3 17 -120z m3014 105 c50 -7 94 -16 98 -20 5 -4 -200
-10 -455 -13 -334 -4 -534 -11 -718 -26 -289 -24 -511 -50 -524 -62 -5 -5 13
-6 40 -3 389 40 1264 71 1544 54 85 -5 236 -14 335 -19 99 -6 207 -12 240 -15
37 -2 52 -1 40 4 -11 5 -42 9 -70 10 l-50 2 40 10 c34 8 99 6 215 -8 14 -1 81
-8 150 -14 69 -6 163 -15 209 -21 76 -9 114 -7 80 5 -27 10 -285 45 -451 62
-128 13 -168 20 -168 31 0 24 30 27 154 14 575 -59 1228 -210 1751 -406 325
-122 767 -328 935 -436 95 -60 167 -136 176 -185 8 -45 -2 -55 -23 -23 -42 62
-161 151 -304 228 -80 43 -149 74 -149 67 0 -3 51 -35 113 -72 152 -91 277
-185 321 -241 39 -51 42 -60 22 -85 -20 -27 -30 -22 -68 27 -76 97 -208 180
-374 234 -89 29 -174 47 -174 38 0 -3 44 -20 98 -38 199 -66 319 -134 410
-234 51 -55 62 -84 43 -114 -7 -11 -20 -4 -63 34 -119 108 -352 231 -473 249
l-40 6 30 -15 c17 -8 73 -33 125 -56 129 -56 240 -123 311 -188 72 -64 83 -82
65 -106 -11 -16 -16 -14 -57 30 -46 49 -125 108 -194 142 -41 21 -189 75 -237
87 -51 12 -29 -10 28 -28 79 -25 264 -120 321 -164 26 -21 61 -55 77 -76 26
-34 27 -39 13 -54 -14 -14 -19 -13 -52 14 -82 65 -165 118 -243 155 -72 33
-174 70 -191 68 -3 0 48 -26 114 -58 143 -68 220 -116 286 -178 40 -38 47 -48
38 -64 -14 -27 -29 -24 -91 20 -97 70 -251 142 -378 178 -8 2 46 -26 120 -64
128 -64 266 -149 290 -178 14 -16 -13 -75 -34 -75 -7 0 -32 13 -54 30 -56 40
-204 114 -272 135 -30 9 -61 18 -68 21 -7 2 -10 -1 -7 -6 3 -6 12 -10 18 -10
26 0 235 -110 294 -154 71 -54 78 -67 54 -97 l-17 -22 -80 47 c-77 45 -199 97
-259 110 -16 3 29 -24 100 -61 161 -84 214 -120 215 -145 0 -4 -7 -14 -16 -23
-15 -14 -20 -13 -67 15 -65 39 -194 102 -267 129 -74 29 -42 4 74 -56 105 -54
216 -122 216 -132 0 -4 -13 -20 -29 -35 l-30 -28 -58 44 c-68 53 -193 131
-199 125 -3 -2 49 -44 116 -93 81 -60 118 -94 115 -104 -5 -18 -53 -159 -60
-179 -4 -10 -21 3 -55 41 -77 87 -202 159 -482 279 -912 391 -1769 557 -2773
536 -755 -16 -1274 -102 -1917 -317 -290 -97 -494 -178 -696 -275 -258 -125
-351 -189 -376 -260 -7 -20 -8 -20 -22 0 -8 11 -19 37 -25 59 -10 39 -10 40
28 73 21 18 78 61 127 95 49 35 101 73 115 86 25 22 23 21 -29 -4 -69 -34
-163 -97 -216 -146 l-41 -37 -16 34 -16 34 42 36 c23 20 102 73 175 117 72 45
130 83 128 86 -13 13 -238 -110 -344 -188 l-32 -24 -25 24 c-14 13 -25 29 -25
36 0 26 105 105 215 160 63 32 113 59 112 61 -2 1 -24 -4 -49 -12 -83 -25
-192 -81 -252 -130 -56 -45 -60 -47 -73 -30 -34 48 8 111 121 180 74 45 84 61
27 40 -47 -16 -107 -53 -156 -97 -36 -31 -38 -31 -51 -13 -8 10 -14 22 -14 26
0 18 98 91 189 140 55 30 101 57 101 61 1 20 -169 -58 -255 -118 -46 -31 -66
-39 -74 -31 -17 17 -13 29 23 69 43 47 136 108 244 159 45 22 82 41 82 43 0 2
-26 -4 -58 -13 -82 -25 -185 -82 -266 -146 -37 -30 -72 -53 -76 -50 -4 3 -10
14 -13 26 -4 15 5 33 34 64 42 45 82 73 209 144 50 29 65 40 45 36 -53 -10
-188 -82 -253 -135 -36 -29 -70 -49 -78 -46 -63 24 99 157 294 241 61 26 52
36 -15 15 -119 -37 -188 -76 -277 -158 -46 -43 -50 -44 -62 -27 -23 32 -16 47
51 112 52 50 93 76 208 133 144 71 143 85 -3 29 -86 -33 -175 -89 -250 -156
-36 -33 -54 -43 -62 -35 -32 32 57 141 171 208 42 24 125 65 186 90 153 64
165 84 20 33 -190 -66 -248 -99 -342 -194 -44 -46 -84 -81 -87 -78 -3 4 -6 21
-6 39 0 26 10 43 48 81 57 57 204 141 323 184 99 36 110 44 49 34 -127 -21
-302 -106 -382 -185 -56 -56 -58 -57 -58 -31 0 36 47 109 93 144 116 89 435
259 672 360 455 194 993 357 1450 441 268 49 721 102 995 116 207 11 643 5
755 -10z m2708 0 c8 -7 -56 -401 -68 -420 -9 -14 -38 -12 -58 3 -16 11 -15 26
18 217 20 112 41 208 48 212 12 8 46 1 60 -12z m-3540 -1571 c39 -18 47 -50
47 -190 l0 -131 -30 -29 c-27 -28 -34 -30 -92 -27 l-63 3 -3 180 c-1 98 0 185
2 192 7 16 105 18 139 2z m247 -19 c0 -29 -1 -30 -50 -30 l-50 0 0 -49 0 -50
38 -3 c32 -3 37 -7 40 -30 3 -24 0 -28 -22 -28 -48 0 -56 -9 -56 -61 l0 -49
50 0 c49 0 50 -1 50 -30 l0 -31 -82 3 -83 3 -3 180 c-1 98 0 185 2 192 4 9 30
13 86 13 l80 0 0 -30z m100 -135 l0 -165 50 0 c49 0 50 -1 50 -30 l0 -31 -82
3 -83 3 -3 180 c-1 98 0 185 2 192 3 7 19 13 36 13 l30 0 0 -165z m190 -31 l0
-195 -32 3 -33 3 -3 180 c-1 98 0 185 2 192 3 7 19 13 36 13 l30 0 0 -196z
m85 187 c3 -5 13 -63 22 -128 9 -65 19 -122 23 -126 4 -4 15 52 26 125 18 126
20 133 43 136 13 2 27 0 31 -5 8 -8 -42 -353 -55 -372 -7 -13 -81 -15 -89 -3
-7 11 -56 326 -56 358 0 19 5 24 24 24 14 0 27 -4 31 -9z m345 -21 c0 -29 -1
-30 -50 -30 l-50 0 0 -50 c0 -46 2 -50 24 -50 40 0 56 -11 56 -36 0 -18 -6
-24 -22 -25 -13 -1 -30 -2 -38 -3 -11 -1 -16 -16 -18 -53 l-3 -53 50 0 c50 0
51 -1 51 -30 l0 -31 -82 3 -83 3 -3 180 c-1 98 0 185 2 192 4 9 30 13 86 13
l80 0 0 -30z m188 7 c29 -31 38 -94 18 -140 -13 -33 -13 -41 0 -73 9 -21 14
-58 12 -92 -3 -56 -4 -57 -33 -57 l-30 0 -3 67 c-2 55 -7 70 -23 78 -24 14
-28 5 -31 -80 l-3 -65 -32 -3 -33 -3 0 195 0 196 68 0 c58 0 72 -3 90 -23z
m121 -15 c6 -21 14 -53 17 -70 11 -53 21 -46 41 31 19 69 21 72 51 75 18 2 32
0 32 -5 0 -4 -14 -53 -31 -108 -17 -55 -36 -138 -42 -185 -11 -81 -13 -85 -37
-85 -24 0 -25 3 -32 75 -3 41 -20 122 -37 180 -17 58 -31 111 -31 117 0 8 13
13 30 13 25 0 31 -5 39 -38z m-2656 -59 c259 -312 656 -579 1097 -740 483
-176 1074 -204 1583 -74 356 91 680 246 967 462 120 90 305 264 396 373 l50
58 37 -15 c20 -9 37 -19 37 -23 0 -30 -271 -308 -410 -420 -333 -269 -763
-471 -1190 -560 -209 -43 -372 -57 -620 -51 -440 10 -770 92 -1175 292 -296
146 -480 278 -711 509 -168 169 -211 221 -194 240 6 8 21 17 33 19 12 2 25 5
29 6 3 0 35 -34 71 -76z m4445 -90 c-10 -2 -26 -2 -35 0 -10 3 -2 5 17 5 19 0
27 -2 18 -5z m-1140 -46 c20 -15 15 -75 -7 -87 -49 -26 -94 1 -89 54 5 48 54
65 96 33z m-2500 1 c20 -20 15 -76 -7 -88 -48 -25 -93 -4 -93 45 0 14 5 32 12
40 15 18 71 20 88 3z m284 -5 c10 -9 18 -26 18 -39 0 -57 -81 -73 -109 -23
-13 24 -13 29 2 53 20 30 61 35 89 9z m1935 -9 c15 -24 15 -29 2 -53 -28 -50
-109 -34 -109 21 0 57 76 79 107 32z m1494 -11 c24 -11 71 -33 104 -48 33 -15
100 -45 150 -67 59 -25 104 -53 132 -80 43 -42 68 -45 44 -5 -7 12 6 4 29 -18
l42 -40 15 22 15 22 38 -19 c67 -34 63 -46 -21 -59 -74 -12 -126 3 -301 85
-221 104 -302 134 -388 144 l-75 9 92 -4 c53 -2 95 0 99 6 9 15 -60 39 -111
39 -42 0 -44 1 -33 19 10 16 22 19 69 17 31 -2 76 -12 100 -23z m-4873 -58
c83 4 84 3 22 -4 -77 -9 -194 -54 -399 -151 -162 -77 -244 -98 -313 -79 -48
12 -53 22 -27 50 11 13 18 19 15 12 -12 -23 16 -25 41 -2 31 30 76 34 67 7
-10 -32 16 -20 79 37 36 32 68 53 76 50 8 -3 24 3 35 14 20 18 78 44 153 69
30 9 32 9 23 -8 -17 -32 11 -36 37 -6 12 15 23 22 23 17 0 -16 32 -13 55 5 17
13 20 13 23 1 2 -12 21 -14 90 -12z m4715 -77 c15 -36 44 -65 54 -54 3 3 1 18
-6 33 -10 22 -6 20 28 -15 23 -23 48 -42 56 -42 21 0 19 10 -12 45 -16 17 1 1
37 -37 65 -69 90 -83 90 -51 0 12 17 0 55 -37 36 -36 58 -51 65 -44 6 6 -1 23
-22 49 l-31 40 39 -37 c42 -40 60 -46 66 -26 3 8 10 4 17 -11 18 -34 2 -44
-66 -44 -38 1 -83 10 -128 27 -89 34 -243 119 -284 156 -40 37 -41 67 -3 73
15 2 28 5 29 6 2 0 9 -14 16 -31z m-4629 16 c27 -10 18 -41 -21 -74 -53 -43
-265 -147 -341 -166 -106 -26 -161 1 -108 54 14 15 26 21 26 14 0 -17 25 -15
40 3 10 12 16 13 27 4 11 -10 22 -4 56 27 23 21 36 32 30 25 -7 -8 -13 -21
-13 -28 0 -27 30 -11 76 40 26 28 42 42 36 30 -24 -45 -1 -46 46 0 26 24 32
26 23 10 -14 -28 -14 -33 3 -33 17 0 62 51 71 80 6 20 21 25 49 14z"/>
<path d="M2880 4235 c0 -34 21 -71 73 -130 55 -62 56 -33 1 45 -27 39 -55 80
-61 93 -12 21 -13 21 -13 -8z"/>
<path d="M3052 4059 c6 -19 166 -102 268 -140 127 -46 299 -88 445 -109 143
-20 483 -46 506 -38 24 8 -79 27 -206 38 -212 19 -388 41 -479 61 -136 30
-321 93 -426 146 -52 26 -99 49 -104 51 -5 3 -6 -2 -4 -9z"/>
<path d="M5595 3899 c-304 -62 -560 -93 -868 -105 -124 -4 -177 -10 -174 -18
2 -6 21 -14 43 -18 42 -7 343 6 496 22 314 32 628 98 628 132 0 11 -19 9 -125
-13z"/>
<path d="M4540 4717 c-32 -10 -26 -12 72 -20 106 -9 158 -5 158 12 0 5 -41 9
-90 10 -50 0 -94 2 -98 4 -4 2 -23 -1 -42 -6z"/>
<path d="M5134 4685 c-16 -13 -16 -14 -1 -9 24 8 100 -4 122 -20 16 -11 16
-14 1 -29 -13 -13 -29 -15 -80 -10 -62 6 -63 5 -68 -21 -4 -22 -2 -26 11 -21
9 4 40 9 69 12 43 5 57 12 78 36 29 34 23 47 -35 66 -46 15 -73 14 -97 -4z"/>
<path d="M3755 4669 c-16 -4 -43 -11 -60 -15 -25 -6 -16 -9 45 -15 77 -8 97
-2 87 25 -7 17 -25 19 -72 5z"/>
<path d="M4452 4658 c-13 -13 -36 -44 -53 -69 -24 -39 -28 -51 -20 -72 15 -40
43 -48 164 -50 132 -1 215 10 240 31 36 32 13 89 -48 120 -11 5 -60 13 -110
17 -112 8 -135 14 -135 31 0 20 -12 17 -38 -8z m316 -105 c2 -19 -3 -37 -14
-47 -9 -9 -18 -16 -19 -14 -2 2 -1 25 2 51 6 53 26 60 31 10z"/>
<path d="M5462 4606 c-111 -21 -137 -55 -86 -115 16 -20 44 -36 77 -46 55 -16
172 -20 181 -6 9 13 79 22 87 10 4 -7 17 -6 38 5 35 19 42 56 16 92 -39 56
-185 84 -313 60z m296 -90 c3 -27 -12 -56 -30 -56 -6 0 -7 10 -3 23 4 12 6 32
6 45 -1 33 23 22 27 -12z"/>
<path d="M3501 4589 c-55 -11 -93 -44 -89 -79 7 -56 130 -91 270 -76 l65 7 13
42 c17 54 24 61 40 42 11 -13 10 -20 -9 -45 -21 -30 -21 -30 -1 -30 27 0 45
45 31 77 -26 57 -187 88 -320 62z"/>
<path d="M4960 4560 c-29 -6 -24 -7 30 -8 36 0 74 3 85 8 25 11 -63 11 -115 0z"/>
<path d="M4099 4505 c-11 -19 -29 -37 -40 -40 -25 -8 -24 -22 2 -36 22 -12
113 -5 138 10 22 14 -6 24 -45 17 -25 -5 -34 -3 -34 7 0 20 33 47 56 47 11 0
29 7 40 15 17 13 14 14 -39 15 -55 0 -59 -1 -78 -35z m11 -55 c0 -5 -7 -10
-16 -10 -8 0 -12 5 -9 10 3 6 10 10 16 10 5 0 9 -4 9 -10z"/>
<path d="M5292 4529 c-12 -4 -30 -6 -40 -3 -12 4 -10 0 7 -15 28 -25 44 -26
61 -6 18 21 1 35 -28 24z"/>
<path d="M4754 4442 c-100 -35 -131 -74 -81 -106 36 -24 168 -56 232 -57 95
-1 148 17 184 62 26 32 30 42 21 59 -20 38 -34 22 -42 -49 -2 -14 -9 -26 -16
-29 -10 -3 -13 10 -9 61 l4 65 -60 6 c-101 10 -180 6 -233 -12z"/>
<path d="M3315 4430 c11 -5 29 -9 40 -9 l20 0 -20 9 c-11 5 -29 9 -40 9 l-20
0 20 -9z"/>
<path d="M4465 4410 c-3 -5 5 -15 19 -22 20 -9 35 -8 68 2 40 12 41 14 18 21
-37 11 -98 10 -105 -1z"/>
<path d="M5200 4413 c0 -14 50 -23 119 -22 48 0 52 2 31 10 -38 15 -150 24
-150 12z"/>
<path d="M3740 4406 c0 -2 14 -6 30 -8 17 -3 30 -1 30 4 0 4 -13 8 -30 8 -16
0 -30 -2 -30 -4z"/>
<path d="M3401 4373 c-69 -35 -81 -54 -61 -90 18 -32 30 -38 102 -54 142 -30
294 23 258 92 -16 28 -4 36 20 14 29 -26 25 -39 -22 -79 -33 -28 -37 -36 -22
-36 11 0 25 5 31 11 6 6 22 17 35 23 37 18 31 65 -11 93 -47 32 -92 44 -191
50 -79 4 -89 3 -139 -24z"/>
<path d="M4125 4383 c-68 -20 -87 -39 -83 -81 2 -25 11 -41 31 -56 26 -19 42
-21 180 -21 149 0 153 1 200 28 26 16 47 31 47 33 0 3 -7 18 -15 34 -17 33
-69 55 -165 70 -87 13 -135 12 -195 -7z m313 -35 c35 -35 -12 -112 -63 -106
l-30 3 32 18 c35 18 51 53 34 70 -6 6 -11 15 -11 19 0 12 24 10 38 -4z"/>
<path d="M3250 4375 c-8 -9 -8 -15 -2 -15 18 0 42 12 42 21 0 14 -26 10 -40
-6z"/>
<path d="M3844 4365 c21 -16 66 -19 140 -9 80 11 50 24 -56 24 -93 -1 -101 -2
-84 -15z"/>
<path d="M5455 4374 c-61 -15 -137 -49 -145 -65 -13 -23 -13 -96 -1 -104 5 -3
12 4 16 15 7 23 13 24 52 9 55 -21 129 -29 196 -23 61 6 70 10 78 32 5 13 18
35 28 48 16 21 20 22 25 8 4 -9 0 -27 -9 -40 -11 -17 -12 -25 -3 -30 13 -8 48
31 48 53 0 24 -54 68 -99 82 -46 13 -156 22 -186 15z"/>
<path d="M5130 4310 c8 -5 26 -10 40 -10 14 0 32 5 40 10 11 7 -1 10 -40 10
-39 0 -51 -3 -40 -10z"/>
<path d="M3874 4270 c-29 -11 -76 -69 -72 -89 3 -13 20 -17 101 -19 62 -2 97
1 97 8 0 5 -13 10 -29 10 -44 0 -121 12 -121 19 1 3 19 18 41 34 52 36 41 61
-17 37z"/>
<path d="M4547 4211 c-72 -24 -89 -38 -85 -70 2 -20 15 -32 53 -51 43 -22 63
-25 150 -25 80 0 108 4 139 20 50 25 65 48 49 75 -19 30 3 34 26 4 16 -20 18
-31 10 -51 -11 -30 -8 -36 15 -27 18 7 21 45 6 73 -31 59 -248 90 -363 52z"/>
<path d="M4985 4221 c-7 -13 2 -17 58 -25 51 -8 55 -6 31 18 -17 17 -79 22
-89 7z"/>
<path d="M4275 4170 c-16 -7 -11 -9 22 -9 23 -1 45 4 48 9 8 12 -42 12 -70 0z"/>
<path d="M5210 4164 c-18 -8 -31 -17 -28 -20 6 -5 88 14 88 20 0 12 -31 12
-60 0z"/>
<path d="M4132 4154 c-12 -8 -20 -20 -17 -25 9 -13 17 -11 50 16 26 22 27 25
10 25 -11 0 -31 -7 -43 -16z"/>
<path d="M5000 4131 c0 -19 45 -41 80 -41 l35 1 -45 24 c-48 26 -70 31 -70 16z"/>
<path d="M3990 4115 c-7 -9 -11 -17 -8 -20 8 -8 47 7 52 21 7 19 -28 18 -44
-1z"/>
<path d="M4057 4088 c-26 -9 -30 -31 -4 -23 7 2 25 6 40 9 15 4 25 11 22 16
-7 12 -21 12 -58 -2z"/>
<path d="M6168 3163 c7 -3 16 -2 19 1 4 3 -2 6 -13 5 -11 0 -14 -3 -6 -6z"/>
<path d="M4564 3052 c-23 -11 -52 -35 -65 -53 -23 -33 -24 -39 -24 -229 0
-189 1 -196 24 -234 66 -106 242 -98 299 14 20 40 22 58 22 195 -1 203 -12
246 -83 299 -38 28 -121 32 -173 8z m122 -66 c21 -16 31 -108 33 -302 1 -88
-2 -105 -20 -128 -15 -19 -30 -26 -54 -26 -24 0 -39 7 -54 26 -20 25 -21 40
-21 212 0 177 1 187 22 209 24 26 65 30 94 9z"/>
<path d="M4243 3043 c-39 -5 -40 -9 -11 -40 17 -18 23 -40 28 -106 4 -49 3
-87 -3 -95 -7 -9 -29 -12 -66 -10 l-56 3 -7 80 c-6 77 -3 94 30 158 4 7 -71 2
-147 -9 l-33 -5 25 -27 c25 -26 26 -36 43 -255 17 -214 17 -230 1 -256 -9 -16
-17 -31 -17 -34 0 -4 85 1 138 9 l33 5 -24 29 c-20 23 -25 44 -31 120 -4 56
-3 97 3 103 5 5 33 10 62 11 48 1 53 -1 60 -24 14 -51 10 -184 -7 -208 -9 -13
-14 -26 -11 -28 3 -3 42 -2 87 2 l81 7 -22 23 c-24 26 -31 77 -44 351 -7 123
-5 146 9 167 9 14 16 28 16 31 0 5 -85 4 -137 -2z"/>
<path d="M3811 3009 c-35 -4 -66 -10 -68 -13 -3 -3 8 -16 24 -30 27 -22 31
-36 47 -133 10 -59 20 -121 23 -137 10 -51 -12 -22 -101 133 -47 82 -92 151
-99 154 -12 5 -128 -12 -136 -19 -3 -3 9 -17 27 -32 31 -27 32 -30 66 -247 32
-204 33 -222 19 -253 -9 -18 -14 -35 -12 -37 3 -2 40 2 84 8 l79 13 -29 20
c-26 19 -30 31 -55 180 -15 90 -23 161 -18 163 12 4 0 22 117 -176 101 -172
102 -173 137 -173 34 0 35 2 30 28 -3 15 -20 130 -37 257 -29 215 -30 231 -15
262 24 50 31 47 -83 32z"/>
<path d="M3333 2933 c-66 -16 -74 -24 -45 -45 35 -24 38 -37 108 -368 22 -105
22 -116 8 -138 -9 -13 -13 -26 -11 -29 8 -7 157 28 157 37 0 5 -9 11 -19 15
-26 8 -27 11 -72 234 -40 198 -47 265 -29 276 6 3 10 13 10 21 0 17 -24 17
-107 -3z"/>
<path d="M5930 2945 c0 -3 9 -18 20 -33 l20 -27 -39 -229 c-38 -230 -43 -244
-85 -259 -6 -2 -8 -7 -5 -10 8 -10 160 -40 166 -33 3 3 -2 18 -12 32 -16 25
-17 35 -5 111 7 46 17 86 22 89 6 4 48 7 93 8 77 1 86 3 113 29 35 34 52 85
52 158 0 64 -16 91 -70 119 -55 28 -270 64 -270 45z m198 -81 c33 -9 52 -52
45 -105 -7 -56 -27 -96 -53 -104 -28 -9 -80 4 -87 20 -4 13 12 141 23 178 5
17 31 21 72 11z"/>
<path d="M3060 2871 c-58 -16 -125 -34 -149 -40 l-44 -12 6 -65 c7 -87 40
-136 83 -120 14 5 14 8 0 28 -23 32 -20 84 5 109 11 11 26 19 32 16 7 -2 39
-101 71 -221 60 -216 60 -217 42 -247 -10 -17 -15 -33 -12 -36 3 -3 31 1 63
10 32 8 70 18 86 21 34 8 34 21 0 38 -16 8 -32 27 -39 48 -12 36 -106 387
-108 405 0 6 11 11 26 13 39 5 68 -28 68 -78 0 -43 12 -50 45 -26 37 27 -4
179 -51 183 -10 1 -66 -11 -124 -26z"/>
<path d="M5050 2896 c0 -3 5 -15 12 -25 19 -31 -5 -356 -28 -382 -9 -10 -15
-21 -13 -24 3 -2 51 -6 106 -7 90 -3 105 -1 130 18 38 28 50 69 58 199 12 182
-13 215 -170 223 -52 2 -95 2 -95 -2z m180 -73 c17 -22 20 -36 16 -73 -3 -25
-8 -83 -12 -129 -5 -70 -10 -88 -30 -108 -24 -24 -49 -29 -73 -14 -11 7 -11
36 -1 172 7 90 14 167 17 172 11 18 62 6 83 -20z"/>
<path d="M5476 2838 c6 -38 -91 -312 -127 -361 -11 -16 -19 -30 -17 -32 1 -1
27 -6 56 -10 53 -7 54 -7 42 15 -13 24 -5 73 15 93 8 8 27 12 50 9 47 -6 61
-35 41 -92 -15 -45 -18 -42 67 -54 42 -5 43 -4 23 27 -21 31 -44 362 -28 388
17 26 17 27 -30 34 -24 3 -55 8 -70 11 -26 5 -27 4 -22 -28z m58 -119 c3 -17
6 -53 6 -80 l0 -49 -34 0 c-19 0 -37 4 -40 9 -7 10 45 151 55 151 4 0 9 -14
13 -31z"/>
<path d="M6340 2863 c0 -5 7 -17 15 -27 25 -34 23 -51 -56 -388 -15 -60 -28
-93 -45 -109 -13 -12 -24 -25 -24 -29 0 -8 160 -43 166 -37 3 2 -3 18 -12 34
-17 29 -16 36 30 244 45 208 48 215 82 246 19 17 31 33 27 36 -13 8 -141 37
-164 37 -10 0 -19 -3 -19 -7z"/>
<path d="M6594 2785 c-8 -20 -17 -50 -20 -68 -3 -18 -7 -42 -10 -54 -3 -17 3
-26 26 -38 l30 -16 0 40 c0 47 27 84 62 84 35 0 98 -22 98 -35 0 -6 -55 -76
-122 -155 -164 -194 -209 -253 -206 -271 3 -16 258 -95 291 -90 16 2 25 21 43
83 22 74 22 81 7 93 -31 23 -50 15 -45 -18 3 -23 -3 -36 -26 -59 l-30 -30 -53
18 c-29 9 -54 22 -56 27 -2 6 69 95 157 198 158 185 178 220 148 243 -7 5 -65
24 -128 42 -63 18 -123 34 -133 37 -13 4 -21 -4 -33 -31z"/>
<path d="M2724 2776 c-40 -11 -73 -25 -74 -30 -1 -4 12 -16 28 -26 29 -18 41
-44 119 -247 13 -35 -24 -1 -130 117 -65 72 -122 130 -127 130 -19 0 -120 -42
-120 -50 0 -4 11 -11 24 -14 28 -7 40 -33 126 -284 l63 -183 -20 -27 c-25 -32
-58 -32 -90 1 -12 12 -78 102 -147 201 -101 143 -126 185 -126 212 0 19 -2 34
-5 34 -3 0 -45 -16 -95 -36 -83 -33 -112 -54 -75 -54 27 0 52 -36 59 -86 4
-27 23 -128 43 -224 28 -142 33 -181 24 -204 -6 -16 -8 -32 -6 -35 6 -5 55 11
120 40 l40 17 -32 12 c-30 11 -45 33 -57 91 -7 33 5 44 67 61 47 12 48 12 72
-17 32 -38 41 -71 25 -90 -25 -31 2 -27 102 12 57 23 133 51 171 63 37 12 67
24 67 26 0 3 -15 11 -34 19 -33 14 -36 21 -86 170 -29 86 -50 158 -48 161 3 2
69 -68 148 -156 92 -103 149 -159 158 -155 7 3 18 5 23 5 18 0 8 39 -70 271
-61 182 -76 240 -69 258 5 14 7 27 6 31 -2 4 -35 -2 -74 -14z m-454 -411 c68
-101 68 -101 26 -121 -20 -10 -39 -15 -42 -11 -17 16 -53 207 -39 207 2 0 27
-34 55 -75z"/>
<path d="M6976 2668 c-8 -19 -20 -56 -27 -83 -11 -45 -11 -48 12 -66 34 -26
39 -24 39 16 0 38 35 85 63 85 21 0 107 -40 107 -49 0 -5 -80 -93 -177 -196
-98 -103 -178 -194 -178 -203 0 -10 30 -25 95 -47 52 -18 119 -42 149 -54 29
-12 55 -20 56 -19 9 11 30 59 46 106 18 52 18 57 2 74 -23 26 -30 23 -37 -15
-3 -19 -18 -44 -31 -57 l-25 -24 -53 18 c-28 11 -56 22 -61 27 -5 4 48 69 120
146 205 219 214 230 214 260 0 27 -3 29 -137 66 -75 22 -142 41 -150 44 -8 3
-18 -8 -27 -29z"/>
<path d="M7506 2506 c7 -31 2 -39 -145 -244 -96 -134 -132 -177 -162 -193 -22
-11 -39 -22 -39 -25 0 -8 127 -64 145 -64 12 0 14 4 5 19 -17 34 -11 60 24 98
l33 37 54 -21 c51 -20 54 -22 51 -54 -4 -48 -23 -82 -56 -98 -25 -12 -27 -15
-12 -23 27 -15 156 -67 156 -63 0 2 -4 15 -10 30 -7 19 0 79 31 248 22 122 42
230 45 240 3 10 20 27 37 37 l31 19 -87 41 c-48 22 -92 40 -97 40 -6 0 -8 -11
-4 -24z m24 -153 c0 -26 -34 -190 -41 -197 -9 -10 -92 22 -87 34 2 4 28 43 58
88 50 74 70 95 70 75z"/>
<path d="M1871 2462 c-6 -12 -30 -24 -58 -31 -109 -27 -159 -91 -150 -191 5
-63 34 -125 112 -246 69 -107 112 -139 179 -138 59 1 124 30 155 70 26 34 28
105 3 154 -15 30 -22 35 -50 33 -19 0 -36 -4 -39 -7 -3 -3 4 -25 16 -49 26
-54 26 -68 0 -101 -22 -28 -64 -35 -99 -16 -40 21 -190 293 -190 345 0 46 25
75 65 75 51 0 83 -19 102 -61 20 -44 22 -44 49 -25 18 14 18 17 -26 106 -25
51 -48 94 -52 96 -4 3 -12 -4 -17 -14z"/>
<path d="M4295 2279 c-226 -21 -188 -26 165 -22 201 2 412 7 470 10 100 7 102
7 50 14 -75 10 -574 8 -685 -2z"/>
<path d="M4480 2153 c-835 -37 -1547 -176 -2160 -421 -151 -61 -424 -186 -512
-235 -122 -68 -235 -164 -216 -183 3 -3 41 21 84 52 116 83 192 126 369 208
751 347 1503 508 2560 545 436 16 910 -16 1360 -90 373 -61 650 -131 1019
-256 154 -52 287 -97 295 -99 49 -14 -174 85 -285 126 -635 237 -1424 365
-2213 358 -130 -1 -265 -3 -301 -5z"/>
<path d="M7470 1620 c8 -6 71 -40 140 -75 69 -35 165 -94 215 -130 49 -36 92
-60 94 -54 14 44 -273 217 -439 263 -20 6 -22 5 -10 -4z"/>
<path d="M4030 1545 l0 -135 25 0 25 0 0 135 0 135 -25 0 -25 0 0 -135z"/>
<path d="M5170 1624 c0 -52 1 -55 23 -52 41 6 33 108 -9 108 -10 0 -14 -15
-14 -56z"/>
</g>
</svg>
